<?xml version="1.0" encoding="UTF-8"?>
<svg id="Livello_3" data-name="Livello 3" xmlns="http://www.w3.org/2000/svg" viewBox="0 0 730.0483 121.4372">
  <g id="Livello_1" data-name="Livello 1">
    <g>
      <path d="M195.0172,8.4478h-12.6716v19.0081h-12.6717v11.0875h12.6717v36.6951c0,7.2156,1.6498,12.3198,4.9495,15.3115,3.301,2.9916,8.5148,4.4881,15.6427,4.4881h11.0876v-11.0875h-10.0319l-8.9015.0428-.0748-10.0747v-35.3752h19.0082v-11.0875h-19.0082V8.4478Z"/>
      <path d="M270.5175,59.003c0,5.1042-.9899,9.6362-2.9698,13.5958-1.9798,3.9597-4.5319,7.0184-7.6563,9.1735-3.1245,2.1564-6.3584,3.234-9.702,3.234-4.84,0-8.645-1.4952-11.4175-4.4882-2.7712-2.9916-4.1581-8.1835-4.1581-15.5756V27.4559h-12.6716v40.1263c0,9.68,2.1783,16.8517,6.5337,21.5164,4.3566,4.6634,10.5385,6.9951,18.5454,6.9951,5.4561,0,10.8853-2.2455,14.9326-5.5891,4.0486-3.3435,6.4073-6.4665,8.4309-10.5138.0454-.0817.0883-.1412.1328-.2144v15.2616h12.6716V27.4559h-12.6716v31.5471Z"/>
      <path d="M309.0545,36.8268v-9.3708h-12.6716v67.5822h12.6716v-55.5359l25.3434-.1661v-12.9359c-5.5438,0-9.8773.5272-13.0016,1.5841-2.8069.9487-8.0416,2.9641-12.3417,8.8424Z"/>
      <rect x="342.3146" y="27.4559" width="12.6717" height="67.5822"/>
      <rect x="341.7861" width="13.7273" height="14.7842"/>
      <path d="M404.3518,26.4003c-3.7844,0-7.2812.8353-10.4934,2.507-3.212,1.673-5.9175,3.7625-8.1178,6.2708-2.2002,2.507-3.7843,4.9496-4.7523,7.3251-.0425.0958-.0876.1671-.1315.2513v-15.2985h-12.6718v67.5822h12.6718v-31.5471c0-5.1042.9899-9.6362,2.9697-13.5958s4.5319-7.0183,7.6552-9.1735c3.1243-2.1564,6.3584-3.2339,9.7019-3.2339,4.84,0,8.6462,1.4952,11.4175,4.4881,2.7725,2.9916,4.1582,8.1835,4.1582,15.5757v37.4865h12.6716v-40.1263c0-9.68-2.177-16.8517-6.5337-21.5164-4.3555-4.6635-10.5371-6.9952-18.5454-6.9952Z"/>
      <path d="M490.1431,28.0266v13.4395c-.0947-.1929-.1833-.4162-.2643-.6785-2.199-4.4881-5.2357-8.0082-9.1078-10.5591-3.8719-2.5521-8.4026-3.8282-13.5945-3.8282-5.8081,0-10.978,1.4514-15.51,4.3554-4.5319,2.904-8.052,6.9526-10.5603,12.1445-2.5071,5.1919-3.7612,11.1313-3.7612,17.8184s1.2542,12.6279,3.7612,17.8198c2.5083,5.1919,6.0284,9.2405,10.5603,12.1445,4.532,2.904,9.7019,4.3553,15.51,4.3553,5.1919,0,9.7225-1.2761,13.5945-3.8281,3.8721-2.5521,6.9088-6.1599,9.1078-10.8234.076-.2283.1663-.4141.2643-.5765v9.1558c0,7.3921-1.6937,12.9797-5.0811,16.7641-3.3887,3.7844-8.2944,5.6752-14.7185,5.6752-6.5118,0-11.0437-1.1433-13.5959-3.4312-2.5508-2.2878-4.0911-5.1919-4.6196-8.712h-12.6716c.6162,6.4241,3.564,11.7256,8.8435,15.9056,5.2808,4.1801,12.6716,6.2695,22.1764,6.2695,9.8553,0,17.7089-2.7494,23.5607-8.2493,5.8519-5.4999,8.7778-13.5739,8.7778-24.2219V27.4559h-12.6716v.5707ZM484.5334,76.9542c-3.7405,4.3128-8.5573,6.468-14.4542,6.468-6.3352,0-11.2628-2.1113-14.783-6.3352s-5.2795-9.6801-5.2795-16.3684,1.7594-12.1432,5.2795-16.3671,8.4478-6.3352,14.783-6.3352c5.897,0,10.7137,2.1552,14.4542,6.4667,3.7393,4.3128,5.6096,9.7238,5.6096,16.2356s-1.8704,11.9241-5.6096,16.2357Z"/>
      <path d="M64.8458,27.089c-1.8575-2.3443-4.7283-3.8442-7.9567-3.8442H0v4.5396h62.5214v92.8483h4.6588V27.7844h62.5214v-4.5396h-56.8891c-3.2284,0-6.0992,1.4999-7.9667,3.8442Z"/>
      <path d="M74.5905,44.2242v76.4084h4.5396V39.9727h50.5714v-4.5396h-46.3198c-4.8575,0-8.7912,3.9336-8.7912,8.7911Z"/>
      <path d="M86.6597,55.9259v64.7067h4.5496V51.6744h38.4922v-4.5496h-34.2408c-4.8575,0-8.801,3.9436-8.801,8.8011Z"/>
      <path d="M46.3198,35.4332H0v4.5396h50.5714v80.6599h4.5396V44.2242c0-4.8575-3.9337-8.7911-8.7911-8.7911Z"/>
      <path d="M34.1016,47.1248H0v4.5496h38.3531v68.9583h4.5396V55.9259c0-4.8575-3.9337-8.8011-8.7911-8.8011Z"/>
      <rect y="11.6226" width="129.7015" height="4.5396"/>
      <rect y=".0004" width="129.7015" height="4.5396"/>
      <polygon points="540.717 43.6459 552.6805 43.6459 552.6805 40.3453 540.717 40.3453 540.717 30.6917 554.8676 30.6917 554.8676 27.3911 537.1272 27.3911 537.1272 56.2708 540.717 56.2708 540.717 43.6459"/>
      <polygon points="573.6814 53.1769 567.2856 53.1769 567.2856 35.2298 557.5493 35.2298 557.5493 38.3237 563.9038 38.3237 563.9038 53.1769 557.5493 53.1769 557.5493 56.2708 573.6814 56.2708 573.6814 53.1769"/>
      <path d="M565.636,31.5572c1.4443,0,2.5579-1.0722,2.5579-2.5991,0-1.443-1.1135-2.5578-2.5579-2.5578s-2.5991,1.1148-2.5991,2.5578c0,1.5269,1.155,2.5991,2.5991,2.5991Z"/>
      <path d="M592.8661,44.3474v11.9234h3.3832v-12.1301c0-6.6826-3.7126-9.1589-8.2507-9.1589-3.3419,0-5.4463,1.4856-6.6838,3.0952l-.4534-2.8471h-2.9299v21.041h3.3833v-10.9326c0-4.498,2.3925-7.2613,6.1064-7.2613,3.4658,0,5.4449,2.1858,5.4449,6.2704Z"/>
      <path d="M615.8461,53.0115c.0414,2.063.9908,3.2592,3.7953,3.2592h1.8577v-3.0939h-1.0735c-.9482,0-1.3616-.2894-1.3616-1.4029v-9.2003c0-4.9102-3.0939-7.592-8.4575-7.592-5.0742,0-8.416,2.4351-8.9109,6.5598h3.3833c.4121-2.1444,2.3923-3.5473,5.3623-3.5473,3.3005,0,5.2395,1.6497,5.2395,4.3727v1.4443h-6.1877c-5.5288,0-8.4575,2.3511-8.4575,6.5598,0,3.8367,3.1353,6.1477,7.7561,6.1477,3.63,0,5.7344-1.6096,7.0546-3.5073ZM609.0396,53.6303c-2.8059,0-4.5796-1.4029-4.5796-3.4659,0-2.3924,1.6912-3.506,4.7024-3.506h6.5183v1.0309c0,3.5073-2.4337,5.941-6.6411,5.941Z"/>
      <path d="M640.6023,44.3474v11.9234h3.382v-12.1301c0-6.6826-3.7128-9.1589-8.2509-9.1589-3.3418,0-5.4463,1.4856-6.6838,3.0952l-.4534-2.8471h-2.9298v21.041h3.3832v-10.9326c0-4.498,2.3926-7.2613,6.1064-7.2613,3.4646,0,5.4463,2.1858,5.4463,6.2704Z"/>
      <path d="M658.7548,37.9943c3.0939,0,5.1569,1.691,5.7758,4.4968h3.5486c-.8669-4.6208-4.1261-7.5093-9.283-7.5093-6.1064,0-10.2725,4.3741-10.2725,10.8099,0,6.5598,4.0432,10.7272,10.1897,10.7272,5.1169,0,8.5402-2.8885,9.3657-7.4266h-3.5901c-.6587,2.6818-2.7218,4.4141-5.7343,4.4141-4.0433,0-6.7665-3.1352-6.7665-7.7147s2.7231-7.7974,6.7665-7.7974Z"/>
      <path d="M679.5903,31.5572c1.4442,0,2.5577-1.0722,2.5577-2.5991,0-1.443-1.1135-2.5578-2.5577-2.5578s-2.5991,1.1148-2.5991,2.5578c0,1.5269,1.1548,2.5991,2.5991,2.5991Z"/>
      <polygon points="681.24 35.2298 671.5037 35.2298 671.5037 38.3237 677.8579 38.3237 677.8579 53.1769 671.5037 53.1769 671.5037 56.2708 687.6357 56.2708 687.6357 53.1769 681.24 53.1769 681.24 35.2298"/>
      <path d="M708.8821,51.774v-9.2003c0-4.9102-3.0939-7.592-8.4575-7.592-5.0742,0-8.416,2.4351-8.9109,6.5598h3.3833c.4121-2.1444,2.3923-3.5473,5.3623-3.5473,3.3005,0,5.2395,1.6497,5.2395,4.3727v1.4443h-6.1877c-5.5288,0-8.4575,2.3511-8.4575,6.5598,0,3.8367,3.1353,6.1477,7.7561,6.1477,3.63,0,5.7344-1.6096,7.0546-3.5073.0414,2.063.9908,3.2592,3.7953,3.2592h1.8577v-3.0939h-1.0735c-.9482,0-1.3616-.2894-1.3616-1.4029ZM705.4988,47.6893c0,3.5073-2.4337,5.941-6.6411,5.941-2.8059,0-4.5796-1.4029-4.5796-3.4659,0-2.3924,1.6912-3.506,4.7024-3.506h6.5183v1.0309Z"/>
      <polygon points="723.6538 53.1769 723.6538 27.3911 713.9163 27.3911 713.9163 30.485 720.2706 30.485 720.2706 53.1769 713.9163 53.1769 713.9163 56.2708 730.0483 56.2708 730.0483 53.1769 723.6538 53.1769"/>
      <path d="M548.5972,82.7179h7.0958v.9896c0,5.1156-2.847,8.2934-7.6332,8.2934-5.4863,0-8.3749-4.1674-8.3749-11.3873s2.7645-11.3873,8.2933-11.3873c3.9607,0,6.3945,2.0217,7.2612,6.3531h3.8367c-1.1147-6.5184-5.1155-9.6537-11.0164-9.6537-7.7974,0-12.0461,5.5703-12.0461,14.6879,0,8.9936,4.4967,14.6879,12.0048,14.6879,4.0021,0,6.5197-1.6509,7.84-4.1674l.2467,3.9194h3.0951v-15.636h-10.603v3.3005Z"/>
      <path d="M571.6184,77.561l-.124-3.5486h-7.9214v3.0939h4.7036v14.8532h-4.7036v3.0939h14.2345v-3.0939h-6.1477v-7.5506c0-3.3419,1.4442-7.0959,6.3531-7.0959h2.7231v-3.3005h-2.2686c-4.002,0-5.8997,1.8976-6.8491,3.5486Z"/>
      <path d="M593.981,73.7644c-6.1477,0-10.4379,4.374-10.4379,10.7685s4.2902,10.7686,10.4379,10.7686,10.4377-4.3741,10.4377-10.7686-4.29-10.7685-10.4377-10.7685ZM593.981,92.2889c-4.1675,0-6.9731-3.2592-6.9731-7.756s2.8057-7.756,6.9731-7.756,6.9719,3.2592,6.9719,7.756-2.8047,7.756-6.9719,7.756Z"/>
      <path d="M623.9341,84.945c0,4.498-2.3098,7.2613-6.0237,7.2613-3.342,0-5.3223-2.1858-5.3223-6.2705v-11.9233h-3.3833v12.1288c0,6.6838,3.6726,9.1602,8.1281,9.1602,3.3419,0,5.3636-1.4856,6.6012-3.0538l.4534,2.8058h2.9298v-21.041h-3.3832v10.9326Z"/>
      <path d="M643.9441,73.7644c-3.5486,0-5.8169,1.6923-7.2198,3.6313l-.4535-3.3832h-2.9297v29.2917h3.3832v-11.4687c1.2789,2.0217,3.6713,3.4659,7.2198,3.4659,5.8171,0,10.1084-4.3327,10.1084-10.7686,0-6.8491-4.2913-10.7685-10.1084-10.7685ZM643.6147,92.2889c-4.126,0-6.9319-3.2179-6.9319-7.8387,0-4.4968,2.8059-7.6733,6.9319-7.6733,4.166,0,6.9719,3.1765,6.9719,7.756s-2.8059,7.756-6.9719,7.756Z"/>
    </g>
  </g>
</svg>